<svg width="36" height="36" viewBox="0 0 36 36" fill="none" xmlns="http://www.w3.org/2000/svg">
<path d="M17.0489 3.67705C17.3483 2.75574 18.6517 2.75574 18.9511 3.67705L21.6484 11.9785C21.7822 12.3905 22.1662 12.6695 22.5994 12.6695H31.328C32.2968 12.6695 32.6995 13.9091 31.9158 14.4785L24.8542 19.609C24.5037 19.8637 24.3571 20.315 24.4909 20.7271L27.1882 29.0285C27.4876 29.9498 26.4331 30.7159 25.6494 30.1465L18.5878 25.016C18.2373 24.7613 17.7627 24.7613 17.4122 25.016L10.3506 30.1465C9.56689 30.7159 8.51241 29.9498 8.81176 29.0285L11.5091 20.7271C11.6429 20.315 11.4963 19.8637 11.1458 19.609L4.08417 14.4785C3.30046 13.9091 3.70323 12.6695 4.67196 12.6695H13.4006C13.8338 12.6695 14.2178 12.3905 14.3516 11.9785L17.0489 3.67705Z" fill="#FFCC47"/>
</svg>
