<svg xmlns="http://www.w3.org/2000/svg" xmlns:xlink="http://www.w3.org/1999/xlink" viewBox="0,0,256,256" width="25px" height="25px"><g fill="#b0b0b0" fill-rule="nonzero" stroke="none" stroke-width="1" stroke-linecap="butt" stroke-linejoin="miter" stroke-miterlimit="10" stroke-dasharray="" stroke-dashoffset="0" font-family="none" font-weight="none" font-size="none" text-anchor="none" style="mix-blend-mode: normal"><g transform="scale(5.12,5.12)"><path d="M36.13477,4.94336c-2.57297,0 -4.91848,0.92182 -6.66602,2.53906l-15.9082,0.00781c-1.975,0.008 -3.8418,0.84011 -5.2168,2.28711c-1.139,1.199 -1.83956,3.00697 -1.85156,4.91797l0.01758,23.03711c0.019,1.691 0.81642,3.59047 2.35742,4.98047c1.051,0.949 2.57742,1.80273 4.85742,1.80273l22.95313,-0.06055c1.826,-0.02 3.44945,-0.66141 4.81445,-2.06641c1.177,-1.211 2.02781,-3.23069 2.00781,-4.55469l-0.03711,-16.61133c1.24838,-1.79327 2.37694,-3.87009 2.38477,-6.22656c0.02,-5.92 -4.33489,-10.05273 -9.71289,-10.05273zM35.99414,5.92578c4.836,0 8.90508,3.73517 8.83008,8.95117c-0.06,4.154 -3.71306,7.42453 -5.53906,10.39453c-1.026,1.668 -2.58792,4.63616 -3.16992,7.28516c-0.742,-2.87 -2.01931,-5.49253 -3.07031,-7.14453c-1.686,-2.649 -5.6582,-6.803 -5.6582,-10.375c0,-4.596 3.20942,-9.11133 8.60742,-9.11133zM13.48438,8.49805l15.01172,0.0332c-1.327,1.68261 -2.11931,3.88344 -2.09375,6.46484c0.02653,2.62931 1.34462,4.79375 2.72656,6.70313l-19.96094,19.92383c-0.921,-1.024 -1.60806,-2.27486 -1.66406,-3.88086l-0.00586,-23.33008c-0.006,-1.392 0.63942,-3.02642 1.85742,-4.23242c1.206,-1.194 2.91691,-1.68164 4.12891,-1.68164zM15.99609,11.97656c-2.762,0 -5,2.238 -5,5c0,2.762 2.238,5 5,5c2.762,0 5,-2.238 5,-5c0,-0.343 -0.03556,-0.677 -0.10156,-1l-0.0293,-0.11328h-4.86914v1.66797h3.33398c-0.265,1.576 -1.68298,2.77734 -3.33398,2.77734c-1.841,0 -3.33203,-1.49103 -3.33203,-3.33203c0,-1.841 1.49103,-3.33398 3.33203,-3.33398c0.834,0 1.59569,0.30845 2.17969,0.81445l1.19336,-1.16992c-0.889,-0.814 -2.07305,-1.31055 -3.37305,-1.31055zM36.11719,12.12695c-1.392,0 -2.52148,1.12848 -2.52148,2.52149c0,1.393 1.12948,2.52344 2.52148,2.52344c1.393,0 2.52344,-1.13044 2.52344,-2.52344c0,-1.393 -1.13144,-2.52149 -2.52344,-2.52149zM29.71094,22.48828c0.14155,0.18922 0.28597,0.39181 0.42383,0.57617c1.806,2.414 4.11411,5.59758 5.03711,9.89258c0.018,0.084 0.11989,0.80273 0.96289,0.80273c0.803,-0.02 0.90383,-0.77933 0.92383,-0.86133c1.144,-4.536 3.06748,-7.23081 4.89648,-9.63281c0.17226,-0.22627 0.35999,-0.48591 0.54102,-0.72461l0.02148,15.3125c0,0.367 -0.24114,1.86594 -1.24414,3.21094l-15.03125,-15.07227zM25.51953,26.73633l15.11133,15.08984c-1.866,1.626 -3.49309,1.7463 -4.99609,1.6543l-21.97461,0.01172c-1.636,-0.029 -2.73042,-0.44313 -3.73242,-1.20313z"></path></g></g></svg>