<svg xmlns="http://www.w3.org/2000/svg" xmlns:xlink="http://www.w3.org/1999/xlink" viewBox="0,0,256,256" width="25px" height="25px"><g fill="#b0b0b0" fill-rule="nonzero" stroke="none" stroke-width="1" stroke-linecap="butt" stroke-linejoin="miter" stroke-miterlimit="10" stroke-dasharray="" stroke-dashoffset="0" font-family="none" font-weight="none" font-size="none" text-anchor="none" style="mix-blend-mode: normal"><g transform="scale(5.12,5.12)"><path d="M24.84961,10c-13.772,0 -14.84961,1.07761 -14.84961,14.84961v0.30078c0,13.772 1.07761,14.84961 14.84961,14.84961h0.30078c13.772,0 14.84961,-1.07761 14.84961,-14.84961v-0.30078c0,-13.772 -1.07761,-14.84961 -14.84961,-14.84961zM23.75195,11h2.49609c11.826,0 12.75195,0.92595 12.75195,12.75195v2.49609c0,11.826 -0.92595,12.75195 -12.75195,12.75195h-2.49609c-11.826,0 -12.75195,-0.92595 -12.75195,-12.75195v-2.49609c0,-11.826 0.92595,-12.75195 12.75195,-12.75195zM33.49609,15c-0.828,0.002 -1.49809,0.67491 -1.49609,1.50391c0.002,0.828 0.67491,1.49809 1.50391,1.49609c0.828,-0.002 1.49809,-0.67491 1.49609,-1.50391c-0.002,-0.828 -0.67491,-1.49809 -1.50391,-1.49609zM24.98047,17c-4.418,0.011 -7.99147,3.60153 -7.98047,8.01953c0.01,4.418 3.60153,7.99147 8.01953,7.98047c4.418,-0.01 7.99147,-3.60153 7.98047,-8.01953c-0.01,-4.418 -3.60153,-7.99147 -8.01953,-7.98047zM24.98242,18c3.866,-0.009 7.00858,3.11642 7.01758,6.98242c0.009,3.866 -3.11642,7.00858 -6.98242,7.01758c-3.866,0.009 -7.00858,-3.11642 -7.01758,-6.98242c-0.009,-3.866 3.11642,-7.00858 6.98242,-7.01758z"></path></g></g></svg>