<svg xmlns="http://www.w3.org/2000/svg" xmlns:xlink="http://www.w3.org/1999/xlink" viewBox="0,0,256,256" width="25px" height="25px"><g fill="#b0b0b0" fill-rule="nonzero" stroke="none" stroke-width="1" stroke-linecap="butt" stroke-linejoin="miter" stroke-miterlimit="10" stroke-dasharray="" stroke-dashoffset="0" font-family="none" font-weight="none" font-size="none" text-anchor="none" style="mix-blend-mode: normal"><g transform="scale(5.12,5.12)"><path d="M25,8c-9.389,0 -17,7.611 -17,17c0,3.127 0.85903,6.04745 2.33203,8.56445l-2.18555,8.1582l8.53711,-1.9043c2.46,1.383 5.29341,2.18164 8.31641,2.18164c9.389,0 17,-7.611 17,-17c0,-9.389 -7.611,-17 -17,-17zM25,9c8.802,0 16,7.198 16,16c0,8.802 -7.198,16 -16,16c-2.997,0 -5.7593,-0.80223 -8.1543,-2.24023l-7.30078,1.62305l1.86133,-6.96094c-1.535,-2.45 -2.40625,-5.31687 -2.40625,-8.42187c0,-8.802 7.198,-16 16,-16zM18.80078,16.54883c-0.302,0 -0.78717,0.11055 -1.20117,0.56055c-0.407,0.45 -1.56641,1.53214 -1.56641,3.74414c0,2.204 1.60312,4.34077 1.82813,4.63477c0.225,0.302 3.10297,4.97934 7.66797,6.77734c3.784,1.49 4.55772,1.19419 5.38672,1.11719c0.821,-0.071 2.65434,-1.08291 3.02734,-2.12891c0.373,-1.047 0.37281,-1.94672 0.25781,-2.13672c-0.114,-0.182 -0.40742,-0.29258 -0.85742,-0.51758c-0.45,-0.225 -2.65631,-1.31294 -3.07031,-1.46094c-0.408,-0.148 -0.70991,-0.22539 -1.00391,0.22461c-0.302,0.45 -1.15683,1.46186 -1.42383,1.75586c-0.259,0.302 -0.51875,0.33633 -0.96875,0.11133c-0.45,-0.225 -1.89833,-0.69556 -3.61133,-2.22656c-1.333,-1.187 -2.23219,-2.65552 -2.49219,-3.10352c-0.26,-0.448 -0.02773,-0.69492 0.19727,-0.91992c0.204,-0.196 0.44883,-0.5193 0.67383,-0.7793c0.217,-0.267 0.29536,-0.44995 0.44336,-0.75195c0.155,-0.294 0.07684,-0.56016 -0.03516,-0.78516c-0.112,-0.225 -0.98281,-2.44312 -1.38281,-3.32812c-0.336,-0.744 -0.68872,-0.76544 -1.01172,-0.77344c-0.262,-0.014 -0.56342,-0.01367 -0.85742,-0.01367z"></path></g></g></svg>