<svg xmlns="http://www.w3.org/2000/svg" xmlns:xlink="http://www.w3.org/1999/xlink" viewBox="0 0 500 500"><defs><clipPath id="freepik--clip-path--inject-294"><path d="M352.14,208.12l-15.31,2.78-21.28,3.87-27.87,5.07a4.13,4.13,0,0,1-4.81-3.33l-6.12-33.65a4.15,4.15,0,0,1,3.33-4.81l16.21-3,23.58-4.28,24.67-4.49a4.13,4.13,0,0,1,4.81,3.33l6.12,33.65A4.13,4.13,0,0,1,352.14,208.12Z" style="fill:#00E0FF;stroke:#263238;stroke-linecap:round;stroke-linejoin:round"></path></clipPath></defs><g id="freepik--Document--inject-294"><rect x="137.25" y="75.67" width="196.11" height="272.62" transform="translate(-21.99 27.31) rotate(-6.35)" style="fill:#fff;stroke:#263238;stroke-linecap:round;stroke-linejoin:round"></rect><rect x="124.27" y="76.39" width="196.11" height="37.72" transform="translate(-9.17 25.16) rotate(-6.35)" style="fill:#bfbfbf;stroke:#263238;stroke-linecap:round;stroke-linejoin:round"></rect><path d="M263.54,82.92,179.4,92.28A2.88,2.88,0,1,0,180,98l84.14-9.36a2.88,2.88,0,0,0-.64-5.72Z" style="fill:#fff"></path><path d="M243.81,97l-42.06,4.68a1.42,1.42,0,0,0-1.27,1.58,1.44,1.44,0,0,0,1.58,1.28l42.07-4.68a1.44,1.44,0,0,0-.32-2.86Z" style="fill:#fff"></path><path d="M275.25,129.42,165,141.68a1.07,1.07,0,0,0,.24,2.13l110.22-12.26a1.07,1.07,0,0,0-.24-2.13Z" style="opacity:0.30000000000000004"></path><path d="M276.1,137.07l-126.76,14.1a1.07,1.07,0,1,0,.24,2.13l126.76-14.1a1.07,1.07,0,0,0,1-1.18A1.08,1.08,0,0,0,276.1,137.07Z" style="opacity:0.30000000000000004"></path><path d="M243.87,148.4l-93.68,10.42a1.07,1.07,0,1,0,.24,2.13l93.67-10.42a1.07,1.07,0,0,0,1-1.18A1.08,1.08,0,0,0,243.87,148.4Z" style="opacity:0.30000000000000004"></path><rect x="290.17" y="125.94" width="16.73" height="16.73" rx="2.74" transform="translate(-13.02 33.83) rotate(-6.35)" style="fill:none;stroke:#263238;stroke-linecap:round;stroke-linejoin:round;opacity:0.30000000000000004"></rect><polyline points="294.01 133.95 297.69 137.42 302.53 130.01" style="fill:none;stroke:#00E0FF;stroke-linecap:round;stroke-linejoin:round;stroke-width:3px"></polyline><path d="M279.28,165.66,169.06,177.92a1.07,1.07,0,0,0,.24,2.13l110.22-12.26a1.07,1.07,0,1,0-.24-2.13Z" style="opacity:0.30000000000000004"></path><path d="M280.13,173.31l-126.76,14.1a1.07,1.07,0,1,0,.24,2.13l126.76-14.1a1.07,1.07,0,1,0-.24-2.13Z" style="opacity:0.30000000000000004"></path><path d="M247.9,184.64l-93.68,10.42a1.07,1.07,0,0,0,.24,2.13l93.67-10.42a1.07,1.07,0,0,0,1-1.18A1.08,1.08,0,0,0,247.9,184.64Z" style="opacity:0.30000000000000004"></path><rect x="294.2" y="162.18" width="16.73" height="16.73" rx="2.74" transform="translate(-17 34.49) rotate(-6.35)" style="fill:none;stroke:#263238;stroke-linecap:round;stroke-linejoin:round;opacity:0.30000000000000004"></rect><polyline points="298.05 170.19 301.72 173.66 306.56 166.25" style="fill:none;stroke:#00E0FF;stroke-linecap:round;stroke-linejoin:round;stroke-width:3px"></polyline><path d="M283.31,201.9,173.09,214.16a1.07,1.07,0,0,0,.24,2.12L283.55,204a1.07,1.07,0,1,0-.24-2.13Z" style="opacity:0.30000000000000004"></path><path d="M284.17,209.55,157.4,223.65a1.05,1.05,0,0,0-.94,1.18,1.07,1.07,0,0,0,1.18.95l126.76-14.1a1.08,1.08,0,0,0,1-1.19A1.07,1.07,0,0,0,284.17,209.55Z" style="opacity:0.30000000000000004"></path><path d="M251.93,220.88,158.25,231.3a1.07,1.07,0,0,0,.24,2.13L252.16,223a1.07,1.07,0,0,0-.23-2.13Z" style="opacity:0.30000000000000004"></path><rect x="298.23" y="198.41" width="16.73" height="16.73" rx="2.74" transform="translate(-20.98 35.16) rotate(-6.35)" style="fill:none;stroke:#263238;stroke-linecap:round;stroke-linejoin:round;opacity:0.30000000000000004"></rect><polyline points="302.08 206.43 305.75 209.9 310.6 202.48" style="fill:none;stroke:#00E0FF;stroke-linecap:round;stroke-linejoin:round;stroke-width:3px"></polyline><path d="M287.34,238.14,177.12,250.4a1.07,1.07,0,0,0,.24,2.12l110.22-12.26a1.07,1.07,0,1,0-.24-2.12Z" style="opacity:0.30000000000000004"></path><path d="M288.2,245.79l-126.77,14.1a1.05,1.05,0,0,0-.94,1.18,1.07,1.07,0,0,0,1.18.95l126.76-14.1a1.08,1.08,0,0,0,.95-1.19A1.07,1.07,0,0,0,288.2,245.79Z" style="opacity:0.30000000000000004"></path><path d="M256,257.12l-93.68,10.42a1.05,1.05,0,0,0-.94,1.18,1.07,1.07,0,0,0,1.18.95l93.67-10.42a1.07,1.07,0,0,0,.95-1.18A1.06,1.06,0,0,0,256,257.12Z" style="opacity:0.30000000000000004"></path><rect x="302.26" y="234.65" width="16.73" height="16.73" rx="2.74" transform="translate(-24.96 35.83) rotate(-6.35)" style="fill:none;stroke:#263238;stroke-linecap:round;stroke-linejoin:round;opacity:0.30000000000000004"></rect><polyline points="306.11 242.66 309.78 246.13 314.63 238.72" style="fill:none;stroke:#00E0FF;stroke-linecap:round;stroke-linejoin:round;stroke-width:3px"></polyline><path d="M291.38,274.37,181.16,286.63a1.07,1.07,0,1,0,.23,2.13L291.61,276.5a1.07,1.07,0,0,0,.95-1.18A1.08,1.08,0,0,0,291.38,274.37Z" style="opacity:0.30000000000000004"></path><path d="M292.23,282l-126.77,14.1a1.07,1.07,0,1,0,.24,2.12l126.76-14.1a1.07,1.07,0,1,0-.23-2.12Z" style="opacity:0.30000000000000004"></path><path d="M260,293.36l-93.68,10.42a1.07,1.07,0,0,0,.24,2.13l93.68-10.42a1.08,1.08,0,0,0,.94-1.19A1.06,1.06,0,0,0,260,293.36Z" style="opacity:0.30000000000000004"></path><rect x="306.29" y="270.89" width="16.73" height="16.73" rx="2.74" transform="translate(-28.94 36.5) rotate(-6.35)" style="fill:none;stroke:#263238;stroke-linecap:round;stroke-linejoin:round;opacity:0.30000000000000004"></rect><polyline points="310.14 278.9 313.81 282.37 318.66 274.96" style="fill:none;stroke:#00E0FF;stroke-linecap:round;stroke-linejoin:round;stroke-width:3px"></polyline><path d="M294.45,302,184.23,314.28a1.07,1.07,0,0,0,.24,2.13l110.22-12.26a1.05,1.05,0,0,0,.94-1.18A1.07,1.07,0,0,0,294.45,302Z" style="opacity:0.30000000000000004"></path><path d="M295.3,309.68l-126.76,14.1a1.07,1.07,0,1,0,.23,2.12l126.77-14.1a1.07,1.07,0,0,0-.24-2.12Z" style="opacity:0.30000000000000004"></path><path d="M263.06,321l-93.67,10.42a1.07,1.07,0,0,0-.95,1.18,1.08,1.08,0,0,0,1.19.95l93.67-10.42a1.07,1.07,0,1,0-.24-2.13Z" style="opacity:0.30000000000000004"></path><rect x="309.37" y="298.54" width="16.73" height="16.73" rx="2.74" transform="translate(-31.98 37) rotate(-6.35)" style="fill:none;stroke:#263238;stroke-linecap:round;stroke-linejoin:round;opacity:0.30000000000000004"></rect><polyline points="313.21 306.55 316.88 310.02 321.73 302.61" style="fill:none;stroke:#00E0FF;stroke-linecap:round;stroke-linejoin:round;stroke-width:3px"></polyline></g><g id="freepik--Stamp--inject-294"><path d="M225.72,203.23c-.66-1.17-1.32-1.29-2.14-.83l-1.22.69,3.15,5.55,1.22-.69c.82-.46,1.05-1.09.39-2.26Z" style="fill:none"></path><path d="M202.81,231.27A5.25,5.25,0,0,0,202,228l-1.23-2.18-2.44,1.38,1.33,2.34c.66,1.17.39,1.89-.43,2.35s-1.58.34-2.24-.83L194.14,226l-3.06.6,3.26,5.75c1.49,2.63,3.65,3.38,6.18,2a5.74,5.74,0,0,0,1.11-.83,1.57,1.57,0,0,1,.53-1.9A2.26,2.26,0,0,1,202.81,231.27Z" style="fill:#00E0FF"></path><path d="M189.51,223.83l.58,1,3.37,0-1.47-2.6c-.66-1.17-.4-1.91.42-2.37s1.59-.32,2.25.86l1,1.75,2.43-1.38-.9-1.59c-1.49-2.62-3.65-3.38-6.18-1.94a5.2,5.2,0,0,0-1.52,1.24,5.27,5.27,0,0,0,1.78.25l-2.4.9A4.76,4.76,0,0,0,189.51,223.83Z" style="fill:#00E0FF"></path><path d="M208.2,213.17a5.86,5.86,0,0,1,1-.39c1.29-.58,1.58-2.44,1.47-3.75l-1.33-1.65-3.58,2,2.24,3.94A.81.81,0,0,1,208.2,213.17Z" style="fill:#00E0FF"></path><path d="M223.45,221l2.43-1.38-9.29-16.38-2.31,1.3c.74.18,1.27.53,1.29,1.07-.72.1-1.6,0-2.38.14l4.68,12.13,0,0-5.92-7.38a1,1,0,0,1-.36.87c-.27.19-.66.19-.87.44s-.18.55-.36.77-.46.28-.68.44-.46.57-.71.84a1,1,0,0,1-.44.27l6.58,11.6,2.24-1.28-6.57-11.58,0,0,8.44,10.52,2.44-1.38-4.93-12.73,0,0Z" style="fill:#00E0FF"></path><path d="M229.6,206.74a1.48,1.48,0,0,1,.75.88,4.93,4.93,0,0,0-.75-3.55l-1.21-2.14c-1.49-2.62-3.56-3.33-6.14-1.87l-3.79,2.15,9.3,16.39,2.41-1.37c-.78-.49-1.65-.91-2.39-1.44a2.44,2.44,0,0,1-.83-.89,1.06,1.06,0,0,1,.12-1.15,1.17,1.17,0,0,1,1.24-.17l-1.47-2.6,1.22-.69a5.26,5.26,0,0,0,1.71-1.48C229.26,208,228.37,206.28,229.6,206.74ZM226.73,208l-1.22.69-3.15-5.55,1.22-.69c.82-.46,1.48-.34,2.14.83l1.4,2.46C227.78,206.86,227.55,207.49,226.73,208Z" style="fill:#00E0FF"></path><path d="M243.39,209.73l-1.32-2.34-4.24,2.4-6.2-10.93-.28.22a1.49,1.49,0,0,1-.64.35.51.51,0,0,1-.59-.32,1.08,1.08,0,0,1,0-.47,4.39,4.39,0,0,0-.84-2.59l-2,1.16,9.29,16.38Z" style="fill:#00E0FF"></path><path d="M242.23,204c.28-.73,1.15-1,1.64-1.66a2.25,2.25,0,0,0,.12-.21l-1-1.68,2.53-1.43a1.1,1.1,0,0,0-.24-.43,4,4,0,0,0-1.15-.36.87.87,0,0,1,.67-1.25c.17,0,.37,0,.5-.08a.56.56,0,0,0,.13-.39l-.23-.4-3.54,2-2.58-4.56,4.44-2.53-1.33-2.34-7,4,6.88,12.13A2.73,2.73,0,0,1,242.23,204Z" style="fill:#00E0FF"></path><path d="M251.54,205.11l-1.33-2.34-4.45,2.52L244.43,203l-1.64,1.54-.57.55,2.3,4.05Z" style="fill:#00E0FF"></path><path d="M248.23,186.08c0,.35-.25.74-.59.77a1.81,1.81,0,0,1-.51-.08,4,4,0,0,1-.92-.09.67.67,0,0,1-.18-.11l-2.94,1.67,1.33,2.35,2.69-1.53,8,14,2.57-1.46-8-14,2.7-1.53-1.33-2.34-2.76,1.56C248.24,185.55,248.26,185.82,248.23,186.08Z" style="fill:#00E0FF"></path><path d="M259.46,196l2,3.53,2.7-1.53a3,3,0,0,1,.24-.51,6.37,6.37,0,0,1,2.33-2.06l1.24-.77-.82-1.46-4.45,2.53-2.72-4.8,3.54-2-1.33-2.34-3.54,2L256.07,184l4.45-2.52-1.33-2.34-7,4,5.05,8.91C258.46,191.4,259.07,193.74,259.46,196Z" style="fill:#00E0FF"></path><path d="M207.67,228.36c.42.07.67.49,1,.77a1.36,1.36,0,0,0,.41.26,5.53,5.53,0,0,0,.56-.26c2.52-1.43,3.05-3.71,1.57-6.34l-.15-.26-3.46-.09,1.13,2c.66,1.17.4,1.91-.42,2.37s-1.59.31-2.25-.86l-5-8.85c-.67-1.17-.4-1.9.42-2.37s1.58-.31,2.25.86l3.39,6a13.65,13.65,0,0,1,3.18-.4l-3.91-6.89c-1.48-2.62-3.71-3.33-6.24-1.9s-3.06,3.72-1.57,6.34l4.83,8.52a4.59,4.59,0,0,0,3.28,2.57,1,1,0,0,1,0-.18C206.57,229,207.05,228.24,207.67,228.36Z" style="fill:#00E0FF"></path><path d="M242.2,181.33l7.85-4.45c-2.25.62-4.23,2.5-6.55,2.24a2.52,2.52,0,0,0-1.28,0,1.24,1.24,0,0,0-.42,1.63A2.2,2.2,0,0,0,242.2,181.33Z" style="fill:#00E0FF"></path><path d="M222.51,192.5a.87.87,0,0,1,.1-.5,1.8,1.8,0,0,0,.6.1l2.71-1.53a7.49,7.49,0,0,1,1.44-1.26,7.59,7.59,0,0,1,1.62-.64l.6-.18,5-2.82a.93.93,0,0,1,.21-.27,1,1,0,0,1,.25-.12l-5.16-1.56-1.39.78-.15,1.1-5.95,3.18a5.28,5.28,0,0,1-1.93.73,3.31,3.31,0,0,1-.77,0l-8.48,4.81a5.24,5.24,0,0,0,.34,1.17,3.69,3.69,0,0,1-1.39-.57l-1.74,1c1.24.82,2.46,1.66,3.65,2.55Z" style="fill:#00E0FF"></path><path d="M258.81,171.92l-4.1-2.3-1.94,1.1A8,8,0,0,0,257,173Z" style="fill:#00E0FF"></path><path d="M280.86,196.13l-15.48-27.29a4.6,4.6,0,0,0-6.25-1.73l-1.86,1.06.71.69c.74.74,1.5,1.49,2.19,2.28l.94-.53a.57.57,0,0,1,.77.21l15.49,27.3a.57.57,0,0,1-.22.77l-21.07,12c1.82.11,3.66-.15,5.48.06a19,19,0,0,1,1.95.35l15.62-8.86A4.6,4.6,0,0,0,280.86,196.13Z" style="fill:#00E0FF"></path><path d="M186,230.86,178.72,218a.57.57,0,0,1,.21-.78l21-11.92c-.07-.16-.16-.32-.22-.48a2.87,2.87,0,0,1,.88.1l8.49-4.81c-.28-.09-.55-.2-.82-.3l-4-1.59-3.2,1.82,3.48,2.13c-1.21-.74-3.68-.84-5.81-.81L177,213.73a4.59,4.59,0,0,0-1.73,6.25l6.32,11.14c.29-.08.59-.15.88-.2a13,13,0,0,1,2.42-.12A9.08,9.08,0,0,1,186,230.86Z" style="fill:#00E0FF"></path><path d="M211.94,235.88a4.47,4.47,0,0,0,1.2.77c.45.2,1.05.68.7,1-1.62.74-3.62.19-5.21,1-.87.42-1.71,1.25-2.64,1a12.71,12.71,0,0,1,3,2.53l39.71-22.52c0-.16.05-.32.08-.49a2.07,2.07,0,0,1,2.58-2,5.21,5.21,0,0,1,1.53.16l4.95-2.81a18.63,18.63,0,0,0-2.4-3.26Z" style="fill:#00E0FF"></path><path d="M205.51,242.49a7.22,7.22,0,0,1-2.59-1.49L195,245.5a.56.56,0,0,1-.77-.21l-7-12.27a4.85,4.85,0,0,0-2.09-.24c-.81.16-1.52,1.1-1.08,1.79a2.33,2.33,0,0,1,2,1.24,6.38,6.38,0,0,1-1.41.85l6,10.61A4.6,4.6,0,0,0,197,249l10.38-5.89-.12-.07A17,17,0,0,0,205.51,242.49Z" style="fill:#00E0FF"></path><g style="opacity:0.2"><path d="M202.81,231.27A5.25,5.25,0,0,0,202,228l-1.23-2.18-2.44,1.38,1.33,2.34c.66,1.17.39,1.89-.43,2.35s-1.58.34-2.24-.83L194.14,226l-3.06.6,3.26,5.75c1.49,2.63,3.65,3.38,6.18,2a5.74,5.74,0,0,0,1.11-.83,1.57,1.57,0,0,1,.53-1.9A2.26,2.26,0,0,1,202.81,231.27Z"></path><path d="M189.51,223.83l.58,1,3.37,0-1.47-2.6c-.66-1.17-.4-1.91.42-2.37s1.59-.32,2.25.86l1,1.75,2.43-1.38-.9-1.59c-1.49-2.62-3.65-3.38-6.18-1.94a5.2,5.2,0,0,0-1.52,1.24,5.27,5.27,0,0,0,1.78.25l-2.4.9A4.76,4.76,0,0,0,189.51,223.83Z"></path><path d="M208.2,213.17a5.86,5.86,0,0,1,1-.39c1.29-.58,1.58-2.44,1.47-3.75l-1.33-1.65-3.58,2,2.24,3.94A.81.81,0,0,1,208.2,213.17Z"></path><path d="M223.45,221l2.43-1.38-9.29-16.38-2.31,1.3c.74.18,1.27.53,1.29,1.07-.72.1-1.6,0-2.38.14l4.68,12.13,0,0-5.92-7.38a1,1,0,0,1-.36.87c-.27.19-.66.19-.87.44s-.18.55-.36.77-.46.28-.68.44-.46.57-.71.84a1,1,0,0,1-.44.27l6.58,11.6,2.24-1.28-6.57-11.58,0,0,8.44,10.52,2.44-1.38-4.93-12.73,0,0Z"></path><path d="M229.6,206.74a1.48,1.48,0,0,1,.75.88,4.93,4.93,0,0,0-.75-3.55l-1.21-2.14c-1.49-2.62-3.56-3.33-6.14-1.87l-3.79,2.15,9.3,16.39,2.41-1.37c-.78-.49-1.65-.91-2.39-1.44a2.44,2.44,0,0,1-.83-.89,1.06,1.06,0,0,1,.12-1.15,1.17,1.17,0,0,1,1.24-.17l-1.47-2.6,1.22-.69a5.26,5.26,0,0,0,1.71-1.48C229.26,208,228.37,206.28,229.6,206.74ZM226.73,208l-1.22.69-3.15-5.55,1.22-.69c.82-.46,1.48-.34,2.14.83l1.4,2.46C227.78,206.86,227.55,207.49,226.73,208Z"></path><path d="M243.39,209.73l-1.32-2.34-4.24,2.4-6.2-10.93-.28.22a1.49,1.49,0,0,1-.64.35.51.51,0,0,1-.59-.32,1.08,1.08,0,0,1,0-.47,4.39,4.39,0,0,0-.84-2.59l-2,1.16,9.29,16.38Z"></path><path d="M242.23,204c.28-.73,1.15-1,1.64-1.66a2.25,2.25,0,0,0,.12-.21l-1-1.68,2.53-1.43a1.1,1.1,0,0,0-.24-.43,4,4,0,0,0-1.15-.36.87.87,0,0,1,.67-1.25c.17,0,.37,0,.5-.08a.56.56,0,0,0,.13-.39l-.23-.4-3.54,2-2.58-4.56,4.44-2.53-1.33-2.34-7,4,6.88,12.13A2.73,2.73,0,0,1,242.23,204Z"></path><path d="M251.54,205.11l-1.33-2.34-4.45,2.52L244.43,203l-1.64,1.54-.57.55,2.3,4.05Z"></path><path d="M248.23,186.08c0,.35-.25.74-.59.77a1.81,1.81,0,0,1-.51-.08,4,4,0,0,1-.92-.09.67.67,0,0,1-.18-.11l-2.94,1.67,1.33,2.35,2.69-1.53,8,14,2.57-1.46-8-14,2.7-1.53-1.33-2.34-2.76,1.56C248.24,185.55,248.26,185.82,248.23,186.08Z"></path><path d="M259.46,196l2,3.53,2.7-1.53a3,3,0,0,1,.24-.51,6.37,6.37,0,0,1,2.33-2.06l1.24-.77-.82-1.46-4.45,2.53-2.72-4.8,3.54-2-1.33-2.34-3.54,2L256.07,184l4.45-2.52-1.33-2.34-7,4,5.05,8.91C258.46,191.4,259.07,193.74,259.46,196Z"></path><path d="M207.67,228.36c.42.07.67.49,1,.77a1.36,1.36,0,0,0,.41.26,5.53,5.53,0,0,0,.56-.26c2.52-1.43,3.05-3.71,1.57-6.34l-.15-.26-3.46-.09,1.13,2c.66,1.17.4,1.91-.42,2.37s-1.59.31-2.25-.86l-5-8.85c-.67-1.17-.4-1.9.42-2.37s1.58-.31,2.25.86l3.39,6a13.65,13.65,0,0,1,3.18-.4l-3.91-6.89c-1.48-2.62-3.71-3.33-6.24-1.9s-3.06,3.72-1.57,6.34l4.83,8.52a4.59,4.59,0,0,0,3.28,2.57,1,1,0,0,1,0-.18C206.57,229,207.05,228.24,207.67,228.36Z"></path><path d="M242.2,181.33l7.85-4.45c-2.25.62-4.23,2.5-6.55,2.24a2.52,2.52,0,0,0-1.28,0,1.24,1.24,0,0,0-.42,1.63A2.2,2.2,0,0,0,242.2,181.33Z"></path><path d="M222.51,192.5a.87.87,0,0,1,.1-.5,1.8,1.8,0,0,0,.6.1l2.71-1.53a7.49,7.49,0,0,1,1.44-1.26,7.59,7.59,0,0,1,1.62-.64l.6-.18,5-2.82a.93.93,0,0,1,.21-.27,1,1,0,0,1,.25-.12l-5.16-1.56-1.39.78-.15,1.1-5.95,3.18a5.28,5.28,0,0,1-1.93.73,3.31,3.31,0,0,1-.77,0l-8.48,4.81a5.24,5.24,0,0,0,.34,1.17,3.69,3.69,0,0,1-1.39-.57l-1.74,1c1.24.82,2.46,1.66,3.65,2.55Z"></path><path d="M258.81,171.92l-4.1-2.3-1.94,1.1A8,8,0,0,0,257,173Z"></path><path d="M280.86,196.13l-15.48-27.29a4.6,4.6,0,0,0-6.25-1.73l-1.86,1.06.71.69c.74.74,1.5,1.49,2.19,2.28l.94-.53a.57.57,0,0,1,.77.21l15.49,27.3a.57.57,0,0,1-.22.77l-21.07,12c1.82.11,3.66-.15,5.48.06a19,19,0,0,1,1.95.35l15.62-8.86A4.6,4.6,0,0,0,280.86,196.13Z"></path><path d="M186,230.86,178.72,218a.57.57,0,0,1,.21-.78l21-11.92c-.07-.16-.16-.32-.22-.48a2.87,2.87,0,0,1,.88.1l8.49-4.81c-.28-.09-.55-.2-.82-.3l-4-1.59-3.2,1.82,3.48,2.13c-1.21-.74-3.68-.84-5.81-.81L177,213.73a4.59,4.59,0,0,0-1.73,6.25l6.32,11.14c.29-.08.59-.15.88-.2a13,13,0,0,1,2.42-.12A9.08,9.08,0,0,1,186,230.86Z"></path><path d="M211.94,235.88a4.47,4.47,0,0,0,1.2.77c.45.2,1.05.68.7,1-1.62.74-3.62.19-5.21,1-.87.42-1.71,1.25-2.64,1a12.71,12.71,0,0,1,3,2.53l39.71-22.52c0-.16.05-.32.08-.49a2.07,2.07,0,0,1,2.58-2,5.21,5.21,0,0,1,1.53.16l4.95-2.81a18.63,18.63,0,0,0-2.4-3.26Z"></path><path d="M205.51,242.49a7.22,7.22,0,0,1-2.59-1.49L195,245.5a.56.56,0,0,1-.77-.21l-7-12.27a4.85,4.85,0,0,0-2.09-.24c-.81.16-1.52,1.1-1.08,1.79a2.33,2.33,0,0,1,2,1.24,6.38,6.38,0,0,1-1.41.85l6,10.61A4.6,4.6,0,0,0,197,249l10.38-5.89-.12-.07A17,17,0,0,0,205.51,242.49Z"></path></g></g></svg>