<svg width="160" height="225" viewBox="0 0 160 225" fill="none" xmlns="http://www.w3.org/2000/svg">
<g filter="url(#filter0_d_55_903)">
<path d="M113.06 105.71C120.913 106.95 128.043 110.153 134.45 115.32C141.063 120.487 146.23 126.893 149.95 134.54C153.877 142.187 155.84 150.35 155.84 159.03C155.84 169.983 153.05 179.903 147.47 188.79C141.89 197.47 133.727 204.393 122.98 209.56C112.44 214.52 99.9367 217 85.47 217H4.87V0.929992H82.37C97.0433 0.929992 109.547 3.40999 119.88 8.36999C130.213 13.1233 137.963 19.6333 143.13 27.9C148.297 36.1667 150.88 45.4667 150.88 55.8C150.88 68.6133 147.367 79.2567 140.34 87.73C133.52 95.9967 124.427 101.99 113.06 105.71ZM33.08 94.24H80.51C93.7367 94.24 103.967 91.14 111.2 84.94C118.433 78.74 122.05 70.1633 122.05 59.21C122.05 48.2567 118.433 39.68 111.2 33.48C103.967 27.28 93.53 24.18 79.89 24.18H33.08V94.24ZM82.99 193.75C97.0433 193.75 107.997 190.443 115.85 183.83C123.703 177.217 127.63 168.02 127.63 156.24C127.63 144.253 123.497 134.85 115.23 128.03C106.963 121.003 95.9067 117.49 82.06 117.49H33.08V193.75H82.99Z" fill="#00C0E6"/>
</g>
<defs>
<filter id="filter0_d_55_903" x="0.869995" y="0.929932" width="158.97" height="224.07" filterUnits="userSpaceOnUse" color-interpolation-filters="sRGB">
<feFlood flood-opacity="0" result="BackgroundImageFix"/>
<feColorMatrix in="SourceAlpha" type="matrix" values="0 0 0 0 0 0 0 0 0 0 0 0 0 0 0 0 0 0 127 0" result="hardAlpha"/>
<feOffset dy="4"/>
<feGaussianBlur stdDeviation="2"/>
<feComposite in2="hardAlpha" operator="out"/>
<feColorMatrix type="matrix" values="0 0 0 0 0 0 0 0 0 0 0 0 0 0 0 0 0 0 0.25 0"/>
<feBlend mode="normal" in2="BackgroundImageFix" result="effect1_dropShadow_55_903"/>
<feBlend mode="normal" in="SourceGraphic" in2="effect1_dropShadow_55_903" result="shape"/>
</filter>
</defs>
</svg>
