<svg width="281" height="281" viewBox="0 0 281 281" fill="none" xmlns="http://www.w3.org/2000/svg">
<path d="M0 158.583H280.319V280.311H0V158.583Z" fill="url(#paint0_linear_55_902)"/>
<mask id="mask0_55_902" style="mask-type:luminance" maskUnits="userSpaceOnUse" x="0" y="158" width="281" height="123">
<path d="M0 158.302H280.319V280.031H0V158.302Z" fill="white"/>
</mask>
<g mask="url(#mask0_55_902)">
<g opacity="0.3">
<path opacity="0.3" d="M228.039 206.868C233.482 208.176 239.696 208.97 246.33 208.97C252.497 208.97 258.314 208.339 263.476 207.195C265.602 206.727 267.728 206.517 269.877 206.47C272.446 207.895 276.301 208.9 280.319 209.717V163.488H0V206.167C2.07903 206.26 4.15806 206.33 6.30717 206.424C12.9414 208.036 20.7436 208.993 29.1298 208.993C37.4459 208.993 45.2014 208.059 51.8122 206.47C54.9658 206.424 57.8157 206.377 60.3152 206.377C109.278 206.377 35.9041 216.212 0.0233604 220.673V241.487C22.916 241.65 37.5627 243.496 26.4667 248.355C16.3519 252.793 16.3519 257.582 33.1243 256.951C37.0721 256.811 41.931 256.648 47.7242 255.97C75.0553 252.77 79.0966 247.537 55.8301 244.337C32.5637 241.137 29.5269 235.904 54.1482 230.298C68.3277 227.051 84.4226 222.752 89.8888 222.752C93.9301 222.752 92.2248 225.088 79.774 231.886C67.3699 238.66 70.0797 241.16 79.3535 241.16C92.0146 241.16 116.869 236.535 132.053 231.886C158.357 223.85 156.675 220.65 128.012 219.856C102.503 219.132 134.646 211.446 160.576 211.446C163.799 211.446 166.93 211.563 169.85 211.82C196.153 214.226 210.659 215.838 170.177 225.859C129.694 235.881 132.731 243.916 155.343 246.72C177.956 249.523 177.278 252.746 150.625 256.741C139.412 258.423 130.372 259.404 124.765 259.404C117.033 259.404 115.865 257.535 124.672 253.12C132.871 249.009 133.198 246.416 126.073 246.416C120 246.416 108.553 248.308 91.9445 252.723C67.8838 259.147 72.4624 260.759 83.7685 260.759C89.4216 260.759 96.78 260.362 103.064 259.965C104.232 259.895 105.19 259.848 105.96 259.848C117.524 259.848 85.1468 267.954 88.9311 270.967C90.4495 272.182 94.1637 272.579 98.9758 272.579C106.918 272.579 117.851 271.458 126.891 270.967C130.068 270.804 132.661 270.71 134.67 270.71C141.794 270.71 141.234 271.831 131.75 274.027C124.018 275.826 125.302 277.274 133.081 277.274C137.52 277.274 144.107 276.807 152.306 275.639C174.919 272.439 173.564 270.009 150.952 268.421C128.339 266.809 184.356 261.6 207.973 257.582C231.59 253.564 236.309 251.952 185.034 247.14C142.051 243.099 175.643 237.656 212.668 237.656C219.793 237.656 227.081 237.866 233.949 238.31C276.464 241.113 262.612 246.743 252.847 249.943C244.228 252.77 237.43 258.727 252.567 258.727C254.599 258.727 257.052 258.61 259.925 258.376C264.504 258.002 268.171 257.815 271.021 257.815C280.809 257.815 280.669 259.941 273.871 263.305C266.606 266.902 267.471 270.009 275.693 270.079C277.258 270.103 278.824 270.079 280.365 270.056V220.136C279.968 220.229 279.618 220.323 279.197 220.416C279.197 220.416 275.156 220.837 268.031 220.837C258.22 220.837 242.569 220.019 223.531 216.188C215.308 214.553 220.564 210.862 228.039 206.868Z" fill="#D7CCC8"/>
</g>
</g>
<path d="M54.4752 207.966C63.9594 201.402 74.0275 199.743 83.9087 202.219C90.3327 203.808 97.1304 204.672 104.185 204.672C115.445 204.672 126.097 202.476 135.581 198.598C147.121 193.856 159.011 195.865 170.27 203.224C187.627 214.577 212.108 221.655 239.229 221.655C253.969 221.655 267.891 219.529 280.342 215.791V158.676C280.342 148.351 271.979 139.989 261.654 139.989H18.6879C8.36284 139.989 0 148.351 0 158.676V221.211C2.91999 221.515 5.86333 221.678 8.87676 221.678C26.2098 221.678 42.0945 216.515 54.4752 207.966Z" fill="url(#paint1_linear_55_902)"/>
<path opacity="0.8" d="M239.205 212.334C212.084 212.334 187.603 205.256 170.247 193.903C159.011 186.545 147.121 184.536 135.557 189.278C126.097 193.156 115.445 195.351 104.162 195.351C97.107 195.351 90.3093 194.487 83.8853 192.899C73.9807 190.446 63.9126 192.081 54.4519 198.645C42.0945 207.172 26.2098 212.334 8.87676 212.334C5.86333 212.334 2.91999 212.171 0 211.867V228.873C2.91999 229.177 5.86333 229.34 8.87676 229.34C26.2098 229.34 42.0945 224.177 54.4752 215.628C63.9594 209.064 74.0275 207.405 83.9087 209.881C90.3327 211.47 97.1304 212.334 104.185 212.334C115.445 212.334 126.097 210.138 135.581 206.26C147.121 201.518 159.011 203.527 170.27 210.886C187.627 222.239 212.108 229.317 239.229 229.317C253.969 229.317 267.891 227.191 280.342 223.453V206.447C267.868 210.208 253.945 212.334 239.205 212.334Z" fill="white"/>
<path opacity="0.2" d="M261.631 146.973C267.938 146.973 273.17 152.112 273.287 158.443L273.311 159.214V273.023H7.00796V159.33L7.03133 158.443C7.14812 152.136 12.3807 146.973 18.6879 146.973H261.631ZM261.631 139.965H18.6879C8.47964 139.965 0.210239 148.141 0.0233604 158.303H0V280.031H280.319V158.303H280.295C280.108 148.141 271.839 139.965 261.631 139.965Z" fill="#424242"/>
<path d="M29.7138 239.572L46.3927 234.619C47.3972 234.316 48.0746 233.498 48.0746 232.564L48.2382 216.936C48.2615 214.834 51.2749 213.969 52.6999 215.651L63.1651 228.219C63.7958 228.966 64.8938 229.293 65.8982 229.013L82.6706 224.318C84.9365 223.687 86.8053 225.976 85.4271 227.682L75.2188 240.413C74.6115 241.184 74.6115 242.188 75.2188 242.959L85.4271 255.69C86.8053 257.395 84.9365 259.685 82.6706 259.054L65.8982 254.359C64.8938 254.078 63.7958 254.382 63.1651 255.153L52.6999 267.72C51.2983 269.402 48.2615 268.538 48.2382 266.436L48.0746 250.808C48.0746 249.873 47.3972 249.056 46.3927 248.752L29.7138 243.8C27.4712 243.076 27.4712 240.249 29.7138 239.572Z" fill="url(#paint2_linear_55_902)"/>
<path opacity="0.2" d="M55.1293 229.504L57.7924 232.681C59.5911 234.853 62.2774 236.091 65.1507 236.091C66.0384 236.091 66.9261 235.974 67.7904 235.741L70.5936 234.946L69.7526 235.998C67.0896 239.338 67.0896 243.987 69.7526 247.304L70.5936 248.355L67.7904 247.561C66.9261 247.327 66.0618 247.21 65.1507 247.21C62.2774 247.21 59.5911 248.448 57.7924 250.621L55.1293 253.798L55.106 250.668C55.0592 246.65 52.3729 243.146 48.425 241.954L47.3271 241.627L48.425 241.3C52.3962 240.132 55.0826 236.628 55.106 232.587L55.1293 229.504ZM50.7377 214.764C49.4762 214.764 48.2615 215.605 48.2382 216.936L48.0746 232.564C48.0746 233.498 47.3972 234.316 46.3927 234.619L29.7138 239.572C27.4712 240.249 27.4712 243.052 29.7138 243.73L46.3927 248.682C47.3972 248.986 48.0746 249.803 48.0746 250.738L48.2382 266.366C48.2615 267.697 49.4762 268.538 50.7377 268.538C51.4618 268.538 52.186 268.258 52.6999 267.65L63.1651 255.083C63.6323 254.522 64.3798 254.195 65.1507 254.195C65.4077 254.195 65.6413 254.218 65.8982 254.288L82.6706 258.984C82.9276 259.054 83.1845 259.101 83.4415 259.101C85.3103 259.101 86.6418 257.138 85.4271 255.62L75.1955 242.936C74.5881 242.165 74.5881 241.16 75.1955 240.389L85.4037 227.658C86.6184 226.14 85.3103 224.178 83.4181 224.178C83.1612 224.178 82.9042 224.201 82.6473 224.294L65.8749 228.99C65.6413 229.06 65.3843 229.083 65.1274 229.083C64.3565 229.083 63.609 228.756 63.1418 228.195L52.6765 215.628C52.186 215.02 51.4385 214.764 50.7377 214.764Z" fill="#424242"/>
<path d="M132.684 242.702C129.624 242.165 127.568 239.245 128.129 236.184L170.364 4.64128C170.901 1.58114 173.821 -0.451172 176.881 0.0861051C179.941 0.623382 181.997 3.54337 181.436 6.60351L139.202 238.17C138.664 241.207 135.744 243.262 132.684 242.702Z" fill="url(#paint3_linear_55_902)"/>
<path d="M270.975 114.106L270.928 112.704H270.905C271.979 65.9376 232.127 22.4415 175.993 11.3923C175.9 11.369 175.807 11.3456 175.736 11.3456C175.666 11.3222 175.596 11.3222 175.526 11.2989C175.9 11.369 176.274 11.3923 176.648 11.4624C176.32 11.4157 175.993 11.369 175.666 11.2989C175.76 11.3222 175.853 11.3222 175.947 11.3222C175.736 11.2755 175.526 11.2755 175.339 11.2288C175.246 11.2054 175.176 11.1821 175.082 11.1587C174.989 11.1354 174.896 11.1354 174.802 11.1354C174.592 11.0886 174.382 11.0419 174.148 10.9952C174.265 11.0186 174.382 11.0653 174.498 11.0886C174.078 11.0186 173.634 10.9018 173.214 10.8317C173.657 10.9018 174.078 11.0186 174.498 11.0886H174.428C117.664 2.025 65.034 29.3093 49.9668 73.7866H49.9435L49.4062 75.0947C48.2382 77.968 54.4286 83.1772 63.2586 86.7513C70.8272 89.8114 77.8585 90.6524 80.4515 89.0406C80.0077 93.0118 88.791 98.7583 100.611 102.122C112.525 105.509 123.083 105.206 124.718 101.515C126.821 107.144 139.902 113.405 156.465 116.325C173.003 119.245 187.463 117.82 191.364 113.265C191.645 117.283 201.456 121.16 213.813 122.048C225.913 122.912 236.005 120.6 237.196 116.815C239.299 119.105 246.026 120.623 253.969 120.343C263.476 119.992 271.092 117.213 270.975 114.106Z" fill="url(#paint4_radial_55_902)"/>
<path opacity="0.2" d="M152.727 16.3678C159.548 16.3678 166.486 16.9285 173.307 18.003L173.541 18.0497L173.681 18.0731H173.798H173.844C173.868 18.0731 173.914 18.0965 173.938 18.0965L174.031 18.1198L173.868 18.0731L174.148 18.1432L174.358 18.1899L174.639 18.26C200.218 23.3057 223.367 35.7799 239.766 53.4166C255.557 70.3992 264.107 91.0027 263.897 111.583C262.051 112.284 258.571 113.148 253.712 113.311C253.151 113.335 252.614 113.335 252.053 113.335C246.54 113.335 243.106 112.354 242.125 111.816L234.16 103.15L230.913 113.451C229.347 114.176 225.283 115.227 218.835 115.227C217.364 115.227 215.845 115.18 214.327 115.063C206.034 114.456 200.334 112.47 198.255 111.186L197.157 95.7447L186.108 108.639C185.361 109.247 181.46 110.835 172.863 110.835C168.191 110.835 162.935 110.345 157.703 109.434C141.865 106.654 132.591 101.188 131.283 98.9917L125.302 82.9435L118.995 97.193C118.365 97.3332 117.313 97.4733 115.702 97.4733C111.964 97.4733 107.315 96.7258 102.55 95.3943C94.5375 93.1284 89.3282 89.9982 87.5996 88.3163L89.0479 75.4216L77.2045 82.8267C77.0643 82.8501 76.8307 82.8501 76.5037 82.8501C74.448 82.8501 70.5936 82.1726 65.8749 80.2571C61.3665 78.435 58.3998 76.4494 56.9047 75.1413C69.3322 39.9613 107.689 16.3678 152.727 16.3678ZM152.727 9.35986C104.699 9.35986 63.0717 35.0557 49.9668 73.7864H49.9435L49.4062 75.0946C48.2382 77.9678 54.4286 83.1771 63.2586 86.7511C68.3044 88.7835 73.0931 89.8347 76.5037 89.8347C78.2089 89.8347 79.5872 89.5777 80.4515 89.0171C80.0077 92.9882 88.791 98.7348 100.611 102.099C106.171 103.687 111.45 104.458 115.655 104.458C120.444 104.458 123.831 103.453 124.695 101.491C126.798 107.121 139.879 113.381 156.441 116.301C162.281 117.329 167.864 117.82 172.816 117.82C181.88 117.82 188.818 116.185 191.341 113.241C191.621 117.259 201.432 121.137 213.79 122.025C215.518 122.141 217.2 122.211 218.812 122.211C228.577 122.211 236.145 120.039 237.173 116.792C239.112 118.894 244.952 120.343 252.03 120.343C252.661 120.343 253.291 120.343 253.922 120.319C263.453 119.969 271.068 117.189 270.928 114.106L270.881 112.704H270.858C271.932 65.9375 232.08 22.4414 175.947 11.3922C175.853 11.3688 175.76 11.3455 175.69 11.3455C175.62 11.3221 175.55 11.3221 175.48 11.2987C175.853 11.3688 176.227 11.3922 176.601 11.4623C176.274 11.4155 175.947 11.3688 175.62 11.2987C175.713 11.3221 175.807 11.3221 175.9 11.3221C175.69 11.2754 175.48 11.2754 175.293 11.2287C175.199 11.2053 175.129 11.1819 175.036 11.1586C174.942 11.1352 174.849 11.1352 174.755 11.1352C174.545 11.0885 174.335 11.0418 174.101 10.9951C174.218 11.0184 174.335 11.0651 174.452 11.0885C174.031 11.0184 173.587 10.9016 173.167 10.8315C173.611 10.9016 174.031 11.0184 174.452 11.0885H174.382C167.093 9.94386 159.828 9.35986 152.727 9.35986Z" fill="#424242"/>
<path d="M237.43 114.363C244.087 64.8396 216.756 22.4181 175.223 14.102C175.152 14.0786 175.059 14.0552 174.989 14.0552C175.129 14.0786 175.293 14.0786 175.433 14.102C175.223 14.0552 175.012 14.0552 174.825 14.0085C174.732 13.9852 174.662 13.9618 174.568 13.9384C174.475 13.9151 174.382 13.9151 174.288 13.9151C174.078 13.8684 173.868 13.8216 173.634 13.7749C173.798 13.7983 173.938 13.845 174.078 13.8917C174.008 13.8917 173.961 13.8917 173.891 13.8684C132.007 7.44439 91.7576 37.9758 81.0588 86.8213L80.5215 88.62C79.3769 92.5912 88.3938 98.6414 100.634 102.122C112.548 105.509 123.107 105.206 124.742 101.515C126.844 107.144 139.926 113.405 156.488 116.325C173.027 119.245 187.486 117.82 191.388 113.265C191.668 117.283 201.479 121.16 213.836 122.048C226.544 122.959 237.079 120.366 237.36 116.231L237.43 114.363Z" fill="url(#paint5_linear_55_902)"/>
<path opacity="0.2" d="M173.564 19.4747L173.727 19.4981L173.821 19.5215H173.844L173.727 19.4981L173.891 19.5448L173.961 19.5682L174.148 19.6149C212.505 27.3003 238.131 67.0355 231.87 113.615L231.824 114.082L231.8 114.62C229.674 115.741 223.391 117.119 214.234 116.465C212.061 116.301 209.935 116.044 207.926 115.694C201.666 114.596 198.115 112.868 196.924 111.957L186.248 105.533L187.113 109.621C185.641 111.256 175.012 113.895 157.469 110.812C139.926 107.728 130.839 101.608 130.021 99.5758L133.268 95.1374L119.976 98.4078C118.551 98.875 114.627 99.2721 108.367 98.1742C106.334 97.8238 104.255 97.3332 102.176 96.7492C93.3228 94.2497 87.9266 90.7925 86.2914 89.0171L86.4316 88.4798L86.5017 88.2696L86.5484 88.036C96.6165 42.0871 134.343 13.4946 173.05 19.428L173.12 19.4514H173.19L173.447 19.4747H173.564ZM175.433 14.102C175.223 14.0552 175.012 14.0552 174.825 14.0085C174.732 13.9852 174.662 13.9618 174.568 13.9384C174.475 13.9151 174.382 13.9151 174.288 13.9151C174.078 13.8684 173.868 13.8216 173.634 13.7749C173.798 13.7983 173.938 13.845 174.078 13.8917C174.008 13.8917 173.961 13.8917 173.891 13.8684C132.007 7.44439 91.7576 37.9758 81.0588 86.8213L80.5215 88.62C79.3769 92.5912 88.3938 98.6414 100.634 102.122C102.947 102.776 105.236 103.29 107.385 103.687C116.332 105.252 123.434 104.481 124.742 101.515C126.844 107.144 139.926 113.405 156.488 116.325C173.027 119.245 187.486 117.82 191.388 113.265C191.621 116.488 198.022 119.642 206.945 121.207C209.118 121.581 211.407 121.884 213.813 122.048C226.521 122.959 237.056 120.366 237.336 116.231L237.43 114.363C244.087 64.8396 216.756 22.4181 175.223 14.102C175.152 14.0786 175.059 14.0552 174.989 14.0552C175.152 14.0552 175.293 14.0552 175.433 14.102Z" fill="#424242"/>
<path d="M192.836 108.523C201.269 57.7148 193.467 14.4056 175.059 11.1586C156.628 7.93491 134.459 45.9648 124.999 96.5857H124.952L124.461 99.3421C123.387 105.416 137.707 113.031 156.464 116.348C175.222 119.642 191.271 117.399 192.345 111.302L192.462 110.578C192.485 110.555 192.836 108.523 192.836 108.523Z" fill="url(#paint6_radial_55_902)"/>
<path opacity="0.2" d="M172.84 17.9799C173.19 17.9799 173.517 18.0032 173.844 18.0733C184.753 19.9888 194.635 54.9119 185.945 107.378C185.945 107.378 185.781 108.359 185.688 108.943C184.286 109.644 180.385 110.859 172.886 110.859C168.215 110.859 162.959 110.368 157.703 109.434C142.869 106.818 133.782 101.889 131.61 99.4592L131.913 97.894C136.165 75.1415 143.219 54.2344 151.746 39.0038C160.366 23.4928 168.308 17.9799 172.84 17.9799ZM172.84 10.9719C154.899 10.9719 134.086 47.974 124.999 96.5859H124.952L124.461 99.3424C123.387 105.416 137.707 113.031 156.464 116.348C162.328 117.376 167.911 117.867 172.863 117.867C183.772 117.867 191.621 115.484 192.345 111.303L192.462 110.578L192.812 108.546C201.245 57.7384 193.443 14.4292 175.036 11.1822C174.311 11.042 173.564 10.9719 172.84 10.9719Z" fill="#424242"/>
<defs>
<linearGradient id="paint0_linear_55_902" x1="140.159" y1="205.405" x2="140.159" y2="264.8" gradientUnits="userSpaceOnUse">
<stop stop-color="#FFE082"/>
<stop offset="0.3144" stop-color="#FFD965"/>
<stop offset="1" stop-color="#FFCA28"/>
</linearGradient>
<linearGradient id="paint1_linear_55_902" x1="140.159" y1="139.97" x2="140.159" y2="208.333" gradientUnits="userSpaceOnUse">
<stop stop-color="#00ACC1"/>
<stop offset="0.075" stop-color="#13B1C4"/>
<stop offset="0.4329" stop-color="#68CAD0"/>
<stop offset="0.6855" stop-color="#9DD9D8"/>
<stop offset="0.808" stop-color="#B2DFDB"/>
<stop offset="1" stop-color="#B2DFDB"/>
</linearGradient>
<linearGradient id="paint2_linear_55_902" x1="56.9561" y1="214.422" x2="56.9561" y2="254.802" gradientUnits="userSpaceOnUse">
<stop stop-color="#FF9E80"/>
<stop offset="1" stop-color="#FF3D00"/>
</linearGradient>
<linearGradient id="paint3_linear_55_902" x1="154.778" y1="211.638" x2="154.778" y2="102.659" gradientUnits="userSpaceOnUse">
<stop stop-color="#EF5350"/>
<stop offset="1" stop-color="#E53935"/>
</linearGradient>
<radialGradient id="paint4_radial_55_902" cx="0" cy="0" r="1" gradientUnits="userSpaceOnUse" gradientTransform="translate(174.809 7.53981) scale(112.067 112.112)">
<stop stop-color="#EF5350"/>
<stop offset="1" stop-color="#D32F2F"/>
</radialGradient>
<linearGradient id="paint5_linear_55_902" x1="159.413" y1="58.5652" x2="159.413" y2="141.925" gradientUnits="userSpaceOnUse">
<stop stop-color="#F5F5F5"/>
<stop offset="1" stop-color="#BDBDBD"/>
</linearGradient>
<radialGradient id="paint6_radial_55_902" cx="0" cy="0" r="1" gradientUnits="userSpaceOnUse" gradientTransform="translate(172.085 9.87659) scale(105.468 105.51)">
<stop stop-color="#EF5350"/>
<stop offset="1" stop-color="#D32F2F"/>
</radialGradient>
</defs>
</svg>
