<svg width="182" height="226" viewBox="0 0 182 226" fill="none" xmlns="http://www.w3.org/2000/svg">
<g filter="url(#filter0_d_55_903)">
<mask id="path-1-outside-1_55_903" maskUnits="userSpaceOnUse" x="0" y="-4" width="182" height="226" fill="black">
<rect fill="white" y="-4" width="182" height="226"/>
<path d="M135.97 106.4C148.577 109.087 158.703 115.39 166.35 125.31C173.997 135.023 177.82 146.183 177.82 158.79C177.82 176.977 171.413 191.443 158.6 202.19C145.993 212.73 128.323 218 105.59 218H4.22V0.379993H102.18C124.293 0.379993 141.55 5.44332 153.95 15.57C166.557 25.6967 172.86 39.44 172.86 56.8C172.86 69.6133 169.45 80.2567 162.63 88.73C156.017 97.2033 147.13 103.093 135.97 106.4ZM57.23 88.42H91.95C100.63 88.42 107.243 86.56 111.79 82.84C116.543 78.9133 118.92 73.23 118.92 65.79C118.92 58.35 116.543 52.6667 111.79 48.74C107.243 44.8133 100.63 42.85 91.95 42.85H57.23V88.42ZM96.29 175.22C105.177 175.22 111.997 173.257 116.75 169.33C121.71 165.197 124.19 159.307 124.19 151.66C124.19 144.013 121.607 138.02 116.44 133.68C111.48 129.34 104.557 127.17 95.67 127.17H57.23V175.22H96.29Z"/>
</mask>
<path d="M135.97 106.4C148.577 109.087 158.703 115.39 166.35 125.31C173.997 135.023 177.82 146.183 177.82 158.79C177.82 176.977 171.413 191.443 158.6 202.19C145.993 212.73 128.323 218 105.59 218H4.22V0.379993H102.18C124.293 0.379993 141.55 5.44332 153.95 15.57C166.557 25.6967 172.86 39.44 172.86 56.8C172.86 69.6133 169.45 80.2567 162.63 88.73C156.017 97.2033 147.13 103.093 135.97 106.4ZM57.23 88.42H91.95C100.63 88.42 107.243 86.56 111.79 82.84C116.543 78.9133 118.92 73.23 118.92 65.79C118.92 58.35 116.543 52.6667 111.79 48.74C107.243 44.8133 100.63 42.85 91.95 42.85H57.23V88.42ZM96.29 175.22C105.177 175.22 111.997 173.257 116.75 169.33C121.71 165.197 124.19 159.307 124.19 151.66C124.19 144.013 121.607 138.02 116.44 133.68C111.48 129.34 104.557 127.17 95.67 127.17H57.23V175.22H96.29Z" fill="#00C0E6"/>
<path d="M135.97 106.4L134.834 102.565L135.136 110.312L135.97 106.4ZM166.35 125.31L163.182 127.752L163.194 127.768L163.207 127.784L166.35 125.31ZM158.6 202.19L161.166 205.259L161.17 205.255L158.6 202.19ZM4.22 218H0.220001V222H4.22V218ZM4.22 0.379993V-3.62001H0.220001V0.379993H4.22ZM153.95 15.57L151.42 18.6681L151.432 18.6783L151.445 18.6885L153.95 15.57ZM162.63 88.73L159.514 86.222L159.495 86.2453L159.477 86.2689L162.63 88.73ZM57.23 88.42H53.23V92.42H57.23V88.42ZM111.79 82.84L114.323 85.9358L114.33 85.9298L114.338 85.9238L111.79 82.84ZM111.79 48.74L109.176 51.7673L109.209 51.7959L109.242 51.8238L111.79 48.74ZM57.23 42.85V38.85H53.23V42.85H57.23ZM116.75 169.33L119.298 172.414L119.304 172.408L119.311 172.403L116.75 169.33ZM116.44 133.68L113.806 136.69L113.836 136.717L113.867 136.743L116.44 133.68ZM57.23 127.17V123.17H53.23V127.17H57.23ZM57.23 175.22H53.23V179.22H57.23V175.22ZM135.136 110.312C146.845 112.807 156.133 118.607 163.182 127.752L169.518 122.868C161.274 112.173 150.309 105.366 136.804 102.488L135.136 110.312ZM163.207 127.784C170.287 136.777 173.82 147.062 173.82 158.79H181.82C181.82 145.305 177.707 133.269 169.493 122.836L163.207 127.784ZM173.82 158.79C173.82 175.911 167.85 189.211 156.03 199.125L161.17 205.255C174.976 193.676 181.82 178.042 181.82 158.79H173.82ZM156.034 199.121C144.381 208.865 127.743 214 105.59 214V222C128.904 222 147.606 216.595 161.166 205.259L156.034 199.121ZM105.59 214H4.22V222H105.59V214ZM8.22 218V0.379993H0.220001V218H8.22ZM4.22 4.37999H102.18V-3.62001H4.22V4.37999ZM102.18 4.37999C123.72 4.37999 139.964 9.31246 151.42 18.6681L156.48 12.4719C143.136 1.57418 124.867 -3.62001 102.18 -3.62001V4.37999ZM151.445 18.6885C163.029 27.994 168.86 40.5499 168.86 56.8H176.86C176.86 38.33 170.084 23.3993 156.455 12.4515L151.445 18.6885ZM168.86 56.8C168.86 68.8705 165.664 78.581 159.514 86.222L165.746 91.238C173.236 81.9323 176.86 70.3562 176.86 56.8H168.86ZM159.477 86.2689C153.419 94.0301 145.264 99.4742 134.834 102.565L137.106 110.235C148.996 106.712 158.614 100.377 165.783 91.1911L159.477 86.2689ZM57.23 92.42H91.95V84.42H57.23V92.42ZM91.95 92.42C101.127 92.42 108.79 90.463 114.323 85.9358L109.257 79.7442C105.697 82.657 100.133 84.42 91.95 84.42V92.42ZM114.338 85.9238C120.202 81.0795 122.92 74.1511 122.92 65.79H114.92C114.92 72.3089 112.885 76.7471 109.242 79.7561L114.338 85.9238ZM122.92 65.79C122.92 57.4289 120.202 50.5004 114.338 45.6562L109.242 51.8238C112.885 54.8329 114.92 59.2711 114.92 65.79H122.92ZM114.404 45.7127C108.867 40.9302 101.171 38.85 91.95 38.85V46.85C100.089 46.85 105.62 48.6965 109.176 51.7673L114.404 45.7127ZM91.95 38.85H57.23V46.85H91.95V38.85ZM53.23 42.85V88.42H61.23V42.85H53.23ZM96.29 179.22C105.706 179.22 113.569 177.146 119.298 172.414L114.202 166.246C110.424 169.368 104.648 171.22 96.29 171.22V179.22ZM119.311 172.403C125.354 167.367 128.19 160.251 128.19 151.66H120.19C120.19 158.362 118.066 163.026 114.189 166.257L119.311 172.403ZM128.19 151.66C128.19 143.008 125.211 135.824 119.013 130.617L113.867 136.743C118.002 140.216 120.19 145.018 120.19 151.66H128.19ZM119.074 130.67C113.164 125.498 105.185 123.17 95.67 123.17V131.17C103.928 131.17 109.796 133.182 113.806 136.69L119.074 130.67ZM95.67 123.17H57.23V131.17H95.67V123.17ZM53.23 127.17V175.22H61.23V127.17H53.23ZM57.23 179.22H96.29V171.22H57.23V179.22Z" fill="#00E0FF" mask="url(#path-1-outside-1_55_903)"/>
</g>
<defs>
<filter id="filter0_d_55_903" x="0.219971" y="0.380005" width="181.6" height="225.62" filterUnits="userSpaceOnUse" color-interpolation-filters="sRGB">
<feFlood flood-opacity="0" result="BackgroundImageFix"/>
<feColorMatrix in="SourceAlpha" type="matrix" values="0 0 0 0 0 0 0 0 0 0 0 0 0 0 0 0 0 0 127 0" result="hardAlpha"/>
<feOffset dy="4"/>
<feGaussianBlur stdDeviation="2"/>
<feComposite in2="hardAlpha" operator="out"/>
<feColorMatrix type="matrix" values="0 0 0 0 0 0 0 0 0 0 0 0 0 0 0 0 0 0 0.25 0"/>
<feBlend mode="normal" in2="BackgroundImageFix" result="effect1_dropShadow_55_903"/>
<feBlend mode="normal" in="SourceGraphic" in2="effect1_dropShadow_55_903" result="shape"/>
</filter>
</defs>
</svg>
